<svg width="8" height="11" viewBox="0 0 8 11" fill="none" xmlns="http://www.w3.org/2000/svg">
<path d="M7.485 -1.78814e-07C7.445 0.38 7.415 0.75 7.395 1.11C7.385 1.46 7.38 1.73 7.38 1.92C7.38 2.16 7.385 2.385 7.395 2.595C7.405 2.805 7.415 2.99 7.425 3.15H7.08C7.01 2.45 6.915 1.9 6.795 1.5C6.675 1.09 6.465 0.794999 6.165 0.614999C5.865 0.434999 5.4 0.344999 4.77 0.344999H3.825C3.485 0.344999 3.225 0.374999 3.045 0.435C2.875 0.485 2.76 0.6 2.7 0.78C2.64 0.949999 2.61 1.22 2.61 1.59V9.03C2.61 9.39 2.645 9.66 2.715 9.84C2.795 10.02 2.945 10.14 3.165 10.2C3.385 10.26 3.705 10.3 4.125 10.32V10.62C3.865 10.6 3.535 10.59 3.135 10.59C2.735 10.58 2.33 10.575 1.92 10.575C1.53 10.575 1.165 10.58 0.824995 10.59C0.484995 10.59 0.209995 10.6 -4.83543e-06 10.62V10.32C0.339995 10.3 0.594995 10.26 0.764995 10.2C0.944995 10.14 1.065 10.02 1.125 9.84C1.185 9.66 1.215 9.39 1.215 9.03V1.59C1.215 1.22 1.185 0.949999 1.125 0.78C1.065 0.6 0.944995 0.48 0.764995 0.42C0.594995 0.349999 0.339995 0.309999 -4.83543e-06 0.3V-1.78814e-07C0.369995 0.00999969 0.759995 0.0199996 1.17 0.0299994C1.58 0.0299994 1.985 0.0349994 2.385 0.0449992C2.785 0.0449992 3.155 0.0449992 3.495 0.0449992C3.845 0.0449992 4.13 0.0449992 4.35 0.0449992C4.81 0.0449992 5.33 0.0449992 5.91 0.0449992C6.5 0.0349994 7.025 0.0199996 7.485 -1.78814e-07ZM5.16 5.28C5.16 5.28 5.16 5.33 5.16 5.43C5.16 5.53 5.16 5.58 5.16 5.58H2.16C2.16 5.58 2.16 5.53 2.16 5.43C2.16 5.33 2.16 5.28 2.16 5.28H5.16ZM5.445 3.3C5.405 3.87 5.385 4.305 5.385 4.605C5.395 4.905 5.4 5.18 5.4 5.43C5.4 5.68 5.405 5.955 5.415 6.255C5.425 6.555 5.45 6.99 5.49 7.56H5.145C5.105 7.24 5.055 6.93 4.995 6.63C4.945 6.32 4.825 6.07 4.635 5.88C4.455 5.68 4.145 5.58 3.705 5.58V5.28C4.035 5.28 4.285 5.215 4.455 5.085C4.635 4.945 4.765 4.77 4.845 4.56C4.925 4.35 4.98 4.135 5.01 3.915C5.04 3.685 5.07 3.48 5.1 3.3H5.445Z" fill="black"/>
</svg>
