<svg width="32" height="33" viewBox="0 0 32 33" fill="none" xmlns="http://www.w3.org/2000/svg">
<rect y="1" width="32" height="32" rx="5" fill="white"/>
<path d="M22.4083 8.3C22.3416 8.93333 22.2916 9.55 22.2583 10.15C22.2416 10.7333 22.2333 11.1833 22.2333 11.5C22.2333 11.9 22.2416 12.275 22.2583 12.625C22.275 12.975 22.2916 13.2833 22.3083 13.55H21.7333C21.6166 12.3833 21.4583 11.4667 21.2583 10.8C21.0583 10.1167 20.7083 9.625 20.2083 9.325C19.7083 9.025 18.9333 8.875 17.8833 8.875H16.3083C15.7416 8.875 15.3083 8.925 15.0083 9.025C14.725 9.10833 14.5333 9.3 14.4333 9.6C14.3333 9.88333 14.2833 10.3333 14.2833 10.95V23.35C14.2833 23.95 14.3416 24.4 14.4583 24.7C14.5916 25 14.8416 25.2 15.2083 25.3C15.575 25.4 16.1083 25.4667 16.8083 25.5V26C16.375 25.9667 15.825 25.95 15.1583 25.95C14.4916 25.9333 13.8166 25.925 13.1333 25.925C12.4833 25.925 11.875 25.9333 11.3083 25.95C10.7416 25.95 10.2833 25.9667 9.9333 26V25.5C10.5 25.4667 10.925 25.4 11.2083 25.3C11.5083 25.2 11.7083 25 11.8083 24.7C11.9083 24.4 11.9583 23.95 11.9583 23.35V10.95C11.9583 10.3333 11.9083 9.88333 11.8083 9.6C11.7083 9.3 11.5083 9.1 11.2083 9C10.925 8.88333 10.5 8.81667 9.9333 8.8V8.3C10.55 8.31667 11.2 8.33333 11.8833 8.35C12.5666 8.35 13.2416 8.35833 13.9083 8.375C14.575 8.375 15.1916 8.375 15.7583 8.375C16.3416 8.375 16.8166 8.375 17.1833 8.375C17.95 8.375 18.8166 8.375 19.7833 8.375C20.7666 8.35833 21.6416 8.33333 22.4083 8.3ZM18.5333 17.1C18.5333 17.1 18.5333 17.1833 18.5333 17.35C18.5333 17.5167 18.5333 17.6 18.5333 17.6H13.5333C13.5333 17.6 13.5333 17.5167 13.5333 17.35C13.5333 17.1833 13.5333 17.1 13.5333 17.1H18.5333ZM19.0083 13.8C18.9416 14.75 18.9083 15.475 18.9083 15.975C18.925 16.475 18.9333 16.9333 18.9333 17.35C18.9333 17.7667 18.9416 18.225 18.9583 18.725C18.975 19.225 19.0166 19.95 19.0833 20.9H18.5083C18.4416 20.3667 18.3583 19.85 18.2583 19.35C18.175 18.8333 17.975 18.4167 17.6583 18.1C17.3583 17.7667 16.8416 17.6 16.1083 17.6V17.1C16.6583 17.1 17.075 16.9917 17.3583 16.775C17.6583 16.5417 17.875 16.25 18.0083 15.9C18.1416 15.55 18.2333 15.1917 18.2833 14.825C18.3333 14.4417 18.3833 14.1 18.4333 13.8H19.0083Z" fill="black"/>
</svg>
